<svg xmlns="http://www.w3.org/2000/svg" viewBox="0 0 512 512">
  <defs>
    <linearGradient id="bgGradient" x1="0%" y1="0%" x2="0%" y2="100%">
      <stop offset="0%" style="stop-color:#4a3728"/>
      <stop offset="100%" style="stop-color:#1a1209"/>
    </linearGradient>
  </defs>
  <rect x="0" y="0" width="512" height="512" rx="80" ry="80" fill="url(#bgGradient)"/>
  <g transform="translate(60, 60) scale(1)">
    <path d="M359.372 138.214H207.259V94.966c21.333-4.913 37.236-24.048 37.236-46.804C244.495 21.657 222.968 0 196.333 0s-48.162 21.657-48.162 48.162c0 22.82 15.903 41.891 37.236 46.804v43.249H33.295C2.782 139.896-1.808 166.724.584 177.261l33.099 187.863c2.78 15.903 16.549 27.41 32.711 27.41h259.943c16.162 0 29.931-11.507 32.711-27.41l33.099-187.863c1.681-9.762-1.81-37.172-32.775-39.047M169.958 48.162c0-14.545 11.83-26.376 26.376-26.376s26.376 11.83 26.376 26.376-11.83 26.376-26.376 26.376-26.376-11.896-26.376-26.376m200.598 125.284-33.099 187.863c-.905 5.495-5.689 9.438-11.184 9.438H66.329c-5.56 0-10.279-3.943-11.184-9.438L22.111 173.446c-.646-3.426.453-13.382 11.184-13.382h326.077c12.089.065 11.83 10.021 11.184 13.382" fill="#ff8904"/>
    <path d="M106.798 284.19c-14.545 0-26.376-11.83-26.376-26.376s11.83-26.376 26.376-26.376 26.376 11.83 26.376 26.376c-.065 14.61-11.895 26.376-26.376 26.376m177.713 0c-14.545 0-26.376-11.83-26.376-26.376s11.83-26.376 26.376-26.376c14.545 0 26.376 11.83 26.376 26.376s-11.83 26.376-26.376 26.376m-18.553 36.327c-2.069-5.56-8.404-8.404-14.093-6.335-15.58 5.883-35.297 9.115-55.531 9.115s-40.016-3.232-55.531-9.115c-5.624-2.133-11.895.711-14.093 6.335-2.069 5.624.711 11.895 6.335 14.093 18.23 6.852 40.081 10.537 63.289 10.537s45.059-3.62 63.289-10.537c5.623-2.069 8.468-8.404 6.335-14.093" fill="#ff8904"/>
  </g>
</svg>
